# xmcd CD database file
#
# Track frame offsets:
#	150
#	10855
#	23197
#	37067
#	50280
#	61159
#	74257
#	86192
#	101079
#	114884
#	127338
#	137543
#	151349
#	163086
#	176013
#	187373
#	199430
#	210305
#	221020
#
# Disc length: 3118 seconds
#
# Revision: 3
# Processed by: cddbd v1.5.1PL2 Copyright (c) Steve Scherf et al.
# Submitted via: CDex 1.51
#
DISCID=1b0c2c13
DTITLE=Sonny Terry and Brownie McGhee - Harmonica Train
DYEAR=2002
DGENRE=Blues
TTITLE0=Stranger Blues
TTITLE1=I Don't Worry
TTITLE2=Four O'clock Blues
TTITLE3=Lonesome Room
TTITLE4=Baby Let's Have Some Fun
TTITLE5=No Love Blues
TTITLE6=Wine Headed Woman
TTITLE7=Bad Luck Blues
TTITLE8=Man Ain't Nothin' But A Fool
TTITLE9=Women Is Killin' Me
TTITLE10=Dangerous Woman
TTITLE11=News For You Baby
TTITLE12=Harmonica Hop
TTITLE13=Doggin' My Heart Around
TTITLE14=Sonny Is Drinking
TTITLE15=I'm Gonna Rock Your Wig
TTITLE16=Dangerous Woman
TTITLE17=I Love You Baby
TTITLE18=Harmonica Train
EXTD=YEAR: 2002
EXTT0=
EXTT1=
EXTT2=
EXTT3=
EXTT4=
EXTT5=
EXTT6=
EXTT7=
EXTT8=
EXTT9=
EXTT10=
EXTT11=
EXTT12=
EXTT13=
EXTT14=
EXTT15=
EXTT16=
EXTT17=
EXTT18=
PLAYORDER=
